<svg width="1928" height="1129" viewBox="0 0 1928 1129" fill="none" xmlns="http://www.w3.org/2000/svg">
<g opacity="0.2" clip-path="url(#clip0_1_3747)" filter="url(#filter0_d_1_3747)">
<path d="M158.742 685.297C173.209 713.123 169.452 742.24 148.138 764.654C128.101 785.724 107.815 806.538 87.6121 827.447C83.0955 832.12 78.9432 837.218 80.9139 844.763C82.5516 851.032 86.562 854.94 91.4725 855.977C96.3713 857.012 102.039 855.163 106.962 850.196C125.198 831.794 143.181 813.123 161.22 794.52C180.971 774.15 200.486 753.558 220.415 733.394C248.424 705.055 291.598 705.359 319.057 733.748C346.551 762.172 347.193 807.027 319.663 835.826C267.618 890.267 215.172 944.3 162.775 998.383C156.564 1004.79 152.156 1011.7 150.1 1019.2C148.043 1026.7 148.351 1034.78 151.514 1043.52C161.406 1070.84 194.412 1077.39 215.027 1056.22C231.642 1039.15 248.18 1022.01 264.719 1004.87C281.257 987.731 297.796 970.594 314.414 953.54C332.06 935.431 356.224 931.764 376.304 943.489C404.37 959.876 410.412 1000.13 387.634 1024.37C357.217 1056.74 326.076 1088.36 295.236 1120.32C200.626 1120.32 106.014 1120.24 11.4031 1120.5C9.87335 1120.5 8.68312 1120.42 7.75372 1120.21C6.83086 1120.01 6.19661 1119.68 5.74396 1119.22C5.2899 1118.75 4.97235 1118.08 4.77228 1117.12C4.57131 1116.16 4.49536 1114.92 4.49982 1113.34V1113.34C4.75339 1022.63 4.67294 931.919 4.67267 841.213C6.19924 841.032 7.31018 840.26 8.23126 839.33C8.73373 838.822 9.18859 838.259 9.62189 837.719C10.061 837.172 10.4774 836.651 10.9236 836.19C49.1362 796.693 87.1448 756.993 125.545 717.7C128.291 714.889 130.949 711.98 133.594 709.064C136.24 706.146 138.87 703.223 141.572 700.378C146.847 694.823 152.374 689.581 158.742 685.297Z" stroke="#C89B3C"/>
<path d="M1519.12 901.979C1543.49 877.1 1573.97 869.363 1606.86 878.907C1640.45 888.656 1663.55 911.681 1671.94 947.068C1680.2 981.934 1671.56 1013.21 1647.05 1039.35C1621.56 1066.53 1594.28 1092.04 1569.81 1120.32H1308.74C1310.74 1117.88 1312.62 1115.4 1314.77 1113.17C1382.82 1042.7 1450.59 971.94 1519.12 901.979Z" stroke="#C89B3C"/>
<path d="M1799.44 930.728C1833.9 917.511 1872.2 914.692 1914.06 921.888C1914.81 922.017 1915.55 922.182 1916.31 922.346C1917.06 922.509 1917.83 922.67 1918.61 922.781C1919.96 922.974 1921.35 923.018 1922.78 922.661V979.03C1878.71 964.678 1835.87 967.925 1795.68 991.835C1747.98 1020.21 1721.92 1063.78 1716.25 1120.32H1665.58C1667.09 1076.11 1681.29 1036.33 1707.74 1002.03C1734.32 967.571 1764.98 943.945 1799.44 930.728Z" stroke="#C89B3C"/>
<path d="M1268.04 994.774C1284.5 977.787 1305.2 974.615 1322.29 986.048C1343.45 1000.19 1346.84 1031.11 1329.02 1049.83C1309.25 1070.6 1289.21 1091.07 1269.33 1111.73C1266.72 1114.44 1264.4 1117.48 1262 1120.32H1147.66C1151.59 1115.89 1155.39 1111.39 1159.47 1107.15C1195.62 1069.65 1231.8 1032.18 1268.04 994.774Z" stroke="#C89B3C"/>
<path d="M571.358 1051.18C589.444 1036.42 613.792 1031.5 637.045 1035.07C660.297 1038.63 682.398 1050.69 695.986 1069.81C706.849 1085.1 713.2 1101.9 716.275 1120.32H503.16C525.096 1096.35 546.318 1071.62 571.358 1051.18Z" stroke="black"/>
<path d="M105.486 653.799C121.27 653.833 137.06 660.474 150.35 673.793C149.774 675.338 148.871 676.626 147.816 677.826C146.675 679.122 145.422 680.249 144.178 681.537C119.166 707.421 94.3327 733.477 69.0959 759.111C47.5684 780.977 27.3318 804.07 4.67303 824.657V729.81C24.5883 712.577 41.697 692.261 60.298 673.749C73.7006 660.41 89.6129 653.764 105.486 653.799Z" stroke="#C89B3C"/>
<path d="M4.67303 490.366C22.9341 474.384 55.1912 476.872 72.9025 498.682C88.7089 518.146 88.0205 549.099 69.9113 567.773C48.2874 590.071 26.4352 612.131 4.67303 634.293V490.366Z" stroke="#C89B3C"/>
<path d="M345.663 1120.32C356.559 1075.54 395.829 1054.96 431.95 1063.19C457.855 1069.08 481.175 1093.72 484.924 1120.32H345.663Z" stroke="black"/>
<path d="M284.362 540.11C285.43 540.136 286.522 540.661 287.568 541.867C288.443 542.876 288.799 543.911 288.756 544.912C288.713 545.92 288.262 546.956 287.408 547.951C284.906 550.867 282.314 553.709 279.651 556.469C242.24 595.236 204.79 633.964 167.418 672.772C166.599 673.623 165.716 674.431 164.82 675.258C163.928 676.082 163.024 676.924 162.186 677.826C160.545 679.591 159.135 681.61 158.49 684.262C151.904 688.644 146.226 694.024 140.847 699.689C138.135 702.544 135.495 705.478 132.853 708.391C130.209 711.307 127.562 714.205 124.829 717C86.4273 756.297 48.4116 796.002 10.2043 835.495C9.7196 835.996 9.27336 836.556 8.84198 837.093C8.40486 837.638 7.98118 838.161 7.52069 838.626C6.72342 839.432 5.84354 840.036 4.67401 840.207V826.007C27.6296 805.245 48.1282 781.834 69.8098 759.811C95.0519 734.172 119.893 708.106 144.898 682.23C146.069 681.017 147.415 679.794 148.567 678.485C149.703 677.194 150.712 675.755 151.342 673.986C156.196 670.828 160.32 666.877 164.207 662.715C168.158 658.486 171.806 654.11 175.804 650.018C209.048 615.993 241.966 581.623 275.009 547.394C276.956 545.377 278.878 543.361 280.966 541.564C282.128 540.564 283.282 540.083 284.362 540.11Z" stroke="#C89B3C"/>
<path d="M440.444 860.319C467.424 860.361 489.095 882.902 488.944 910.838C488.79 939.345 466.745 962.068 439.534 961.867C412.857 961.669 390.975 938.721 391.077 910.965C391.183 882.017 412.403 860.276 440.444 860.319Z" stroke="black"/>
<path d="M299.16 906.413C300.518 905.697 302.027 905.429 303.845 906.042C305.407 906.569 306.497 907.593 306.68 909.004C306.644 911.921 304.759 913.24 303.034 915.029C276.359 942.702 249.679 970.369 222.931 997.966C222.609 998.299 222.28 998.657 221.951 999.012C221.62 999.37 221.287 999.726 220.948 1000.07C220.265 1000.75 219.581 1001.35 218.879 1001.73C218.186 1002.1 217.501 1002.25 216.793 1002.1C216.077 1001.94 215.26 1001.45 214.343 1000.39C213.585 999.515 213.191 998.668 213.047 997.859C212.903 997.049 213.003 996.245 213.283 995.445C213.85 993.826 215.137 992.274 216.512 990.851C242.748 963.731 269.018 936.644 295.324 909.595H295.325C296.548 908.338 297.775 907.143 299.16 906.413Z" stroke="black"/>
<path d="M96.4349 573.766C97.5165 573.738 98.5938 574.108 99.5736 575.007L99.7679 575.193C100.904 576.332 101.172 577.471 100.973 578.581C100.767 579.731 100.048 580.906 99.0883 582.039C98.417 582.831 97.7143 583.595 96.9965 584.35L94.8138 586.609C70.0787 612.259 45.3541 637.918 20.5775 663.524C19.9737 664.149 19.3966 664.822 18.8285 665.468C18.2553 666.12 17.6856 666.75 17.0775 667.316C15.8719 668.44 14.537 669.292 12.7875 669.526C11.7348 669.563 10.8088 669.426 10.0385 669.05C9.27313 668.676 8.6256 668.051 8.15466 667.045C7.68142 666.033 7.61852 665.1 7.82947 664.239C8.04277 663.37 8.54499 662.543 9.25232 661.774C12.798 657.921 16.4249 654.143 20.0619 650.371C42.6107 626.988 65.168 603.614 87.7318 580.246C89.4542 578.463 91.0425 576.633 92.9105 575.179C94.0507 574.291 95.2689 573.796 96.4349 573.766Z" stroke="#C89B3C"/>
<path d="M1706.77 755.002C1703.11 754.874 1700.59 756.86 1700.67 760.606C1700.75 764.259 1703.18 766.406 1706.89 766.111C1710.09 765.856 1711.62 763.627 1712.12 760.321C1711.44 757.483 1710.08 755.117 1706.77 755.002Z" fill="#C89B3C"/>
<path d="M1706.97 826.008C1710.13 825.751 1711.96 823.552 1711.97 820.542C1711.98 816.964 1709.85 814.882 1706.16 814.793C1702.61 815.096 1700.54 817.277 1700.74 820.838C1700.95 824.486 1703.43 826.296 1706.97 826.008Z" fill="#C89B3C"/>
<path d="M1711.87 791.419C1711.78 788.104 1710.56 785.315 1706.83 784.818C1703.66 784.395 1701.42 786.222 1700.79 789.341C1700.02 793.175 1702.11 795.49 1705.65 796.042C1708.78 796.531 1710.86 794.817 1711.87 791.419Z" fill="#C89B3C"/>
<path d="M1737.31 754.891C1733.61 754.806 1731.42 757.127 1731.54 760.714C1731.66 764.325 1734.13 766.507 1737.71 766.158C1740.81 765.855 1742.22 763.417 1742.58 760.332C1741.91 757.377 1740.58 754.965 1737.31 754.891Z" fill="#C89B3C"/>
<path d="M1737.2 784.853C1733.61 784.95 1731.38 787.053 1731.59 790.744C1731.79 794.428 1734.27 796.359 1737.8 795.963C1740.95 795.61 1742.24 793.201 1742.44 789.871C1741.81 787.132 1740.52 784.761 1737.2 784.853Z" fill="#C89B3C"/>
<path d="M1736.66 814.759C1733.37 815.37 1731.25 817.432 1731.64 821.155C1731.98 824.303 1734.04 826.153 1737.23 826.011C1741.04 825.842 1742.65 823.32 1742.33 819.711C1742.05 816.557 1740.13 814.708 1736.66 814.759Z" fill="#C89B3C"/>
<path d="M1767.87 784.912C1764.26 785.004 1762.18 787.153 1762.32 790.827C1762.48 794.647 1765.03 796.268 1768.5 795.975C1771.81 795.697 1772.84 793.229 1772.93 789.852C1772.52 787.055 1771.19 784.826 1767.87 784.912Z" fill="#C89B3C"/>
<path d="M1762.38 820.238C1762.37 824.003 1764.65 826.096 1768.32 825.96C1771.78 825.831 1772.87 823.375 1772.89 819.848C1772.53 816.934 1771.05 814.808 1767.67 814.945C1764.48 815.074 1762.39 816.981 1762.38 820.238Z" fill="#C89B3C"/>
<path d="M1772.88 760.438C1772.92 757.303 1771.31 754.926 1767.94 755.012C1764.34 755.103 1762.17 757.215 1762.38 761.034C1762.57 764.379 1764.81 765.832 1767.9 766.006C1771.23 765.738 1772.84 763.53 1772.88 760.438Z" fill="#C89B3C"/>
<path d="M1798.69 825.866C1802.01 825.66 1803.6 823.583 1803.61 820.403C1803.63 817.16 1801.89 815.051 1798.64 815.054C1795 815.058 1792.9 817.138 1793.16 820.977C1793.39 824.324 1795.62 825.719 1798.69 825.866Z" fill="#C89B3C"/>
<path d="M1799.29 785.034C1795.67 784.538 1793.35 786.396 1793.19 790.278C1793.05 793.555 1794.76 795.507 1797.93 795.913C1801.2 795.97 1803.18 794.389 1803.55 791.083C1803.91 787.831 1802.49 785.472 1799.29 785.034Z" fill="#C89B3C"/>
<path d="M1797.43 754.991C1795.04 755.771 1792.9 757.379 1793.17 760.714C1793.48 764.465 1795.79 766.374 1799.38 765.855C1802.59 765.39 1803.85 762.95 1803.47 759.768C1803.09 756.482 1801.05 754.99 1797.43 754.991Z" fill="#C89B3C"/>
<path d="M1916.06 0.50293C1917.59 0.498814 1918.78 0.577268 1919.71 0.78418C1920.63 0.989633 1921.27 1.31502 1921.72 1.7832C1922.17 2.25286 1922.49 2.91397 1922.69 3.87598C1922.89 4.84279 1922.97 6.07851 1922.96 7.66309C1922.71 98.3702 1922.79 189.079 1922.79 279.784C1921.26 279.966 1920.15 280.738 1919.23 281.669C1918.73 282.177 1918.27 282.74 1917.84 283.279C1917.51 283.689 1917.19 284.085 1916.87 284.452L1916.54 284.809C1878.33 324.307 1840.32 364.006 1801.92 403.3C1799.17 406.11 1796.51 409.02 1793.87 411.936C1791.22 414.853 1788.59 417.776 1785.89 420.621C1780.61 426.176 1775.09 431.417 1768.72 435.701C1754.25 407.876 1758.01 378.759 1779.32 356.346C1799.36 335.276 1819.65 314.462 1839.85 293.554C1844.37 288.88 1848.52 283.782 1846.55 276.236C1844.91 269.968 1840.9 266.06 1835.99 265.022C1831.09 263.988 1825.42 265.837 1820.5 270.805C1802.26 289.206 1784.28 307.878 1766.24 326.479C1746.49 346.849 1726.98 367.442 1707.05 387.605C1679.04 415.944 1635.86 415.641 1608.4 387.253C1580.91 358.829 1580.27 313.973 1607.8 285.174C1659.84 230.732 1712.29 176.701 1764.69 122.617C1770.9 116.206 1775.31 109.304 1777.36 101.803C1779.42 94.2949 1779.11 86.219 1775.95 77.4805C1766.06 50.1618 1733.05 43.6128 1712.43 64.7822C1695.82 81.8447 1679.28 98.9878 1662.74 116.128C1646.21 133.268 1629.67 150.407 1613.05 167.461C1595.4 185.569 1571.24 189.236 1551.16 177.512C1523.09 161.124 1517.05 120.865 1539.83 96.6279C1570.24 64.2639 1601.39 32.635 1632.23 0.681641C1726.84 0.681757 1821.45 0.759117 1916.06 0.50293Z" stroke="#C89B3C"/>
<path d="M618.721 0.680664C616.719 3.12308 614.843 5.59778 612.691 7.82617C544.646 78.3046 476.875 149.062 408.342 219.021C383.97 243.9 353.496 251.637 320.606 242.093C287.008 232.344 263.908 209.319 255.523 173.932C247.262 139.066 255.899 107.793 280.416 81.6455C305.898 54.469 333.178 28.9619 357.656 0.680664H618.721Z" stroke="#C89B3C"/>
<path d="M261.884 0.680664C260.368 44.8866 246.176 84.6647 219.722 118.965C193.141 153.429 162.48 177.055 128.019 190.271C93.557 203.488 55.2636 206.307 13.4008 199.111C12.6549 198.983 11.9128 198.817 11.1527 198.653C10.3977 198.49 9.62811 198.33 8.85193 198.219C7.50233 198.026 6.11093 197.981 4.68005 198.339V141.969C48.7487 156.321 91.5948 153.076 131.78 129.165C179.477 100.785 205.54 57.224 211.209 0.680664H261.884Z" stroke="#C89B3C"/>
<path d="M779.802 0.680664C775.872 5.11065 772.072 9.61451 767.99 13.8486C731.838 51.347 695.664 88.822 659.422 126.226C642.963 143.213 622.268 146.385 605.169 134.952C584.016 120.81 580.621 89.886 598.441 71.166C618.209 50.4 638.254 29.9292 658.134 9.2666C660.739 6.55994 663.062 3.52271 665.462 0.680664H779.802Z" stroke="#C89B3C"/>
<path d="M1424.3 0.681641C1402.37 24.6464 1381.14 49.3806 1356.1 69.8174C1338.02 84.5779 1313.67 89.5025 1290.42 85.9336C1267.17 82.3646 1245.06 70.3101 1231.48 51.1855V51.1846C1220.61 35.8959 1214.26 19.1002 1211.19 0.681641H1424.3Z" stroke="#C89B3C"/>
<path d="M1922.79 391.189C1902.87 408.422 1885.77 428.739 1867.16 447.251C1853.76 460.59 1837.85 467.236 1821.98 467.201C1806.19 467.167 1790.4 460.526 1777.11 447.206C1777.69 445.661 1778.59 444.374 1779.65 443.174C1780.79 441.878 1782.04 440.751 1783.29 439.463C1808.3 413.579 1833.13 387.523 1858.37 361.889C1879.89 340.022 1900.13 316.929 1922.79 296.342V391.189Z" stroke="#C89B3C"/>
<path d="M1922.79 630.634C1904.53 646.616 1872.27 644.129 1854.56 622.318C1838.75 602.854 1839.44 571.902 1857.55 553.228C1879.18 530.929 1901.03 508.869 1922.79 486.706V630.634Z" stroke="#C89B3C"/>
<path d="M1581.8 0.681641C1570.9 45.4622 1531.63 66.0373 1495.51 57.8135C1469.61 51.9162 1446.29 27.2831 1442.54 0.681641H1581.8Z" stroke="#C89B3C"/>
<path d="M1922.79 294.992C1899.83 315.755 1879.34 339.167 1857.65 361.189C1832.41 386.828 1807.57 412.894 1782.57 438.771C1781.39 439.983 1780.05 441.207 1778.9 442.516C1777.76 443.807 1776.75 445.245 1776.12 447.014C1771.27 450.171 1767.14 454.122 1763.26 458.284C1759.31 462.514 1755.66 466.891 1751.66 470.982C1718.41 505.007 1685.5 539.376 1652.45 573.605C1650.51 575.622 1648.58 577.639 1646.5 579.437C1645.34 580.437 1644.18 580.917 1643.1 580.891C1642.03 580.864 1640.94 580.339 1639.9 579.133C1639.02 578.123 1638.66 577.089 1638.71 576.088C1638.75 575.08 1639.2 574.045 1640.05 573.05C1642.56 570.134 1645.15 567.292 1647.81 564.531C1685.22 525.765 1722.67 487.035 1760.05 448.228C1760.86 447.376 1761.75 446.569 1762.64 445.741C1763.54 444.918 1764.44 444.076 1765.28 443.174C1766.92 441.409 1768.33 439.389 1768.97 436.737C1775.56 432.356 1781.24 426.976 1786.62 421.311C1789.33 418.455 1791.97 415.523 1794.61 412.609C1797.25 409.694 1799.9 406.796 1802.63 404C1841.04 364.704 1879.05 324.998 1917.26 285.505C1917.74 285.004 1918.19 284.444 1918.62 283.907C1919.06 283.363 1919.48 282.839 1919.94 282.374C1920.74 281.568 1921.62 280.963 1922.79 280.793V294.992Z" stroke="#C89B3C"/>
<path d="M1487.93 159.133C1514.61 159.331 1536.49 182.279 1536.39 210.035C1536.28 238.983 1515.06 260.723 1487.02 260.679C1460.04 260.637 1438.37 238.098 1438.52 210.162C1438.67 181.655 1460.72 158.931 1487.93 159.133Z" stroke="#C89B3C"/>
<path d="M1708.58 119.274C1709.28 118.899 1709.96 118.747 1710.67 118.902C1711.38 119.058 1712.2 119.547 1713.12 120.609V120.608C1713.88 121.485 1714.27 122.332 1714.41 123.141C1714.56 123.951 1714.46 124.755 1714.18 125.555C1713.61 127.174 1712.33 128.727 1710.95 130.15C1684.71 157.27 1658.44 184.357 1632.14 211.406C1630.91 212.663 1629.69 213.857 1628.3 214.587C1626.94 215.303 1625.44 215.571 1623.62 214.958C1622.06 214.431 1620.96 213.408 1620.78 211.998C1620.82 209.08 1622.7 207.762 1624.43 205.972H1624.43C1651.1 178.299 1677.78 150.632 1704.53 123.034C1704.85 122.702 1705.18 122.344 1705.51 121.989C1705.84 121.631 1706.17 121.274 1706.51 120.933C1707.2 120.248 1707.88 119.653 1708.58 119.274Z" stroke="#A8BFD5" stroke-opacity="0.2"/>
<path d="M1914.67 451.473C1915.73 451.437 1916.65 451.575 1917.42 451.951C1918.19 452.324 1918.84 452.949 1919.31 453.956C1919.78 454.967 1919.84 455.9 1919.63 456.76C1919.42 457.63 1918.92 458.457 1918.21 459.226C1914.66 463.079 1911.04 466.857 1907.4 470.628C1884.85 494.012 1862.29 517.387 1839.73 540.754C1838.01 542.538 1836.42 544.366 1834.55 545.821C1833.41 546.708 1832.19 547.204 1831.03 547.234C1829.87 547.264 1828.73 546.84 1827.69 545.806H1827.69C1826.56 544.668 1826.29 543.528 1826.49 542.418C1826.67 541.412 1827.24 540.387 1828.03 539.387L1828.37 538.96C1829.72 537.376 1831.18 535.907 1832.65 534.39C1857.38 508.741 1882.11 483.082 1906.88 457.476C1907.49 456.852 1908.07 456.178 1908.63 455.532C1909.21 454.88 1909.78 454.25 1910.38 453.683C1911.59 452.56 1912.92 451.708 1914.67 451.473Z" stroke="#C89B3C"/>
<path d="M190.155 366.109C193.849 366.194 196.042 363.872 195.922 360.286C195.801 356.675 193.328 354.493 189.753 354.842C186.648 355.145 185.245 357.583 184.885 360.668C185.554 363.623 186.882 366.034 190.155 366.109Z" fill="#C89B3C"/>
<path d="M220.695 365.998C224.35 366.126 226.873 364.14 226.793 360.394C226.715 356.741 224.283 354.594 220.575 354.889C217.369 355.144 215.844 357.373 215.344 360.679C216.02 363.517 217.386 365.883 220.695 365.998Z" fill="#C89B3C"/>
<path d="M220.489 294.992C217.337 295.249 215.499 297.448 215.49 300.458C215.479 304.036 217.615 306.118 221.298 306.206C224.855 305.904 226.927 303.723 226.724 300.162C226.515 296.514 224.036 294.704 220.489 294.992Z" fill="#C89B3C"/>
<path d="M215.598 329.581C215.682 332.896 216.902 335.685 220.63 336.182C223.807 336.605 226.045 334.778 226.673 331.659C227.445 327.825 225.349 325.51 221.818 324.958C218.685 324.469 216.605 326.183 215.598 329.581Z" fill="#C89B3C"/>
<path d="M190.267 336.147C193.849 336.05 196.083 333.947 195.876 330.256C195.67 326.572 193.191 324.642 189.658 325.037C186.511 325.39 185.224 327.799 185.02 331.129C185.656 333.868 186.939 336.239 190.267 336.147Z" fill="#C89B3C"/>
<path d="M190.801 306.241C194.097 305.63 196.212 303.568 195.819 299.845C195.487 296.697 193.423 294.847 190.234 294.989C186.423 295.158 184.808 297.679 185.132 301.288C185.416 304.443 187.338 306.291 190.801 306.241Z" fill="#C89B3C"/>
<path d="M159.595 336.088C163.198 335.996 165.286 333.847 165.138 330.173C164.984 326.353 162.433 324.732 158.959 325.025C155.65 325.303 154.618 327.771 154.533 331.149C154.937 333.945 156.275 336.174 159.595 336.088Z" fill="#C89B3C"/>
<path d="M165.083 300.762C165.092 296.996 162.814 294.904 159.144 295.04C155.684 295.169 154.594 297.624 154.567 301.151C154.929 304.066 156.411 306.192 159.796 306.055C162.987 305.926 165.075 304.018 165.083 300.762Z" fill="#C89B3C"/>
<path d="M154.582 360.561C154.543 363.697 156.158 366.074 159.524 365.988C163.122 365.896 165.297 363.785 165.083 359.965C164.896 356.621 162.656 355.168 159.562 354.994C156.233 355.261 154.621 357.47 154.582 360.561Z" fill="#C89B3C"/>
<path d="M128.769 295.135C125.448 295.34 123.863 297.417 123.848 300.597C123.833 303.84 125.57 305.949 128.824 305.946C132.463 305.943 134.558 303.863 134.298 300.022C134.072 296.676 131.844 295.281 128.769 295.135Z" fill="#C89B3C"/>
<path d="M128.17 335.966C131.789 336.462 134.108 334.604 134.273 330.722C134.412 327.445 132.701 325.493 129.528 325.087C126.267 325.03 124.282 326.611 123.916 329.917C123.555 333.169 124.971 335.528 128.17 335.966Z" fill="#C89B3C"/>
<path d="M130.037 366.009C132.418 365.229 134.566 363.621 134.293 360.286C133.985 356.535 131.675 354.626 128.087 355.145C124.873 355.61 123.615 358.05 123.988 361.232C124.373 364.518 126.408 366.01 130.037 366.009Z" fill="#C89B3C"/>
</g>
<defs>
<filter id="filter0_d_1_3747" x="0" y="0" width="1928" height="1129" filterUnits="userSpaceOnUse" color-interpolation-filters="sRGB">
<feFlood flood-opacity="0" result="BackgroundImageFix"/>
<feColorMatrix in="SourceAlpha" type="matrix" values="0 0 0 0 0 0 0 0 0 0 0 0 0 0 0 0 0 0 127 0" result="hardAlpha"/>
<feOffset dy="4"/>
<feGaussianBlur stdDeviation="2"/>
<feComposite in2="hardAlpha" operator="out"/>
<feColorMatrix type="matrix" values="0 0 0 0 0 0 0 0 0 0 0 0 0 0 0 0 0 0 0.25 0"/>
<feBlend mode="normal" in2="BackgroundImageFix" result="effect1_dropShadow_1_3747"/>
<feBlend mode="normal" in="SourceGraphic" in2="effect1_dropShadow_1_3747" result="shape"/>
</filter>
<clipPath id="clip0_1_3747">
<rect width="1920" height="1121" fill="white" transform="translate(4)"/>
</clipPath>
</defs>
</svg>
